<?xml version="1.0" encoding="utf-8"?>
<svg width="800px" height="800px" viewBox="0 0 30 27.2" fill="none" xmlns="http://www.w3.org/2000/svg">
  <path fill-rule="evenodd" clip-rule="evenodd" d="M 10.074 0.307 C 10.483 -0.102 11.145 -0.102 11.553 0.307 L 14.344 3.098 C 14.644 3.396 14.733 3.847 14.572 4.238 C 14.41 4.628 14.027 4.884 13.605 4.884 L 10.814 4.884 C 5.997 4.884 2.093 8.788 2.093 13.605 C 2.093 18.421 5.997 22.325 10.814 22.325 L 11.512 22.325 C 12.089 22.325 12.558 22.794 12.558 23.372 C 12.558 23.95 12.089 24.419 11.512 24.419 L 10.814 24.419 C 4.842 24.419 0 19.577 0 13.605 C 0 7.632 4.842 2.791 10.814 2.791 L 11.078 2.791 L 10.074 1.786 C 9.666 1.377 9.666 0.716 10.074 0.307 Z M 17.442 3.837 C 17.442 3.259 17.911 2.791 18.488 2.791 L 19.186 2.791 C 25.158 2.791 30 7.632 30 13.605 C 30 19.577 25.158 24.419 19.186 24.419 L 18.922 24.419 L 19.926 25.423 C 20.334 25.832 20.334 26.493 19.926 26.902 C 19.517 27.311 18.855 27.311 18.447 26.902 L 15.656 24.112 C 15.356 23.813 15.267 23.362 15.428 22.972 C 15.59 22.581 15.973 22.325 16.395 22.325 L 19.186 22.325 C 24.003 22.325 27.907 18.421 27.907 13.605 C 27.907 8.788 24.003 4.884 19.186 4.884 L 18.488 4.884 C 17.911 4.884 17.442 4.415 17.442 3.837 Z M 15.4 9.847 C 15.791 10.009 16.047 10.391 16.047 10.814 L 16.047 16.395 C 16.047 16.973 15.578 17.442 15 17.442 C 14.422 17.442 13.953 16.973 13.953 16.395 L 13.953 13.341 L 13.647 13.646 C 13.238 14.055 12.576 14.055 12.167 13.646 C 11.759 13.238 11.759 12.576 12.167 12.167 L 14.26 10.074 C 14.559 9.774 15.01 9.685 15.4 9.847 Z" style="fill: rgb(0, 0, 0);"/>
</svg>